<svg width="28" height="28" viewBox="0 0 28 28" fill="none" xmlns="http://www.w3.org/2000/svg">
<path d="M25.6279 16.5616L25.6314 16.5604L21.8005 8.20167L22.7296 7.73928L22.3819 7.04317L21.4762 7.49428L21.3537 7.22711C21.2641 7.03189 21.0333 6.94619 20.8381 7.03568C20.7534 7.07452 20.6855 7.14243 20.6467 7.22711L20.5374 7.46589C19.8782 7.15974 19.1603 7.00088 18.4335 7.00039H15.1668V6.22261H15.9446V5.44483H15.2761L15.5557 4.326C15.7704 3.4669 15.248 2.59642 14.3889 2.3817C13.5298 2.16704 12.6593 2.68941 12.4446 3.54852C12.3808 3.80372 12.3808 4.07075 12.4446 4.32595L12.7242 5.44479H12.0557V6.22256H12.8335V7.00034H9.56878C8.84126 7.00092 8.1226 7.16017 7.46294 7.46701L7.35367 7.22823C7.26417 7.03301 7.03332 6.94731 6.8381 7.0368C6.75342 7.07564 6.68551 7.14355 6.64667 7.22823L6.52417 7.4954L5.61844 7.04234L5.27078 7.73923L6.19983 8.20356L2.36889 16.5604C2.34527 16.6112 2.33321 16.6666 2.3335 16.7226C2.3352 18.2253 3.55301 19.4431 5.05572 19.4448H8.94461C10.4473 19.4431 11.6651 18.2253 11.6668 16.7226C11.6659 16.6668 11.6526 16.6118 11.6279 16.5616L7.7865 8.17133C8.3449 7.91214 8.95317 7.77797 9.56878 7.77817H12.8335V22.0061L11.5058 23.3337H10.1113C9.03794 23.335 8.1681 24.2048 8.16683 25.2782C8.16683 25.4929 8.34096 25.667 8.55572 25.667H19.4446C19.6594 25.667 19.8335 25.4929 19.8335 25.2782C19.8322 24.2048 18.9624 23.335 17.8891 23.3337H16.4945L15.1668 22.0061V7.77817H18.4335C19.0491 7.77797 19.6574 7.91214 20.2158 8.17133L16.3689 16.5604C16.3453 16.6112 16.3332 16.6666 16.3335 16.7226C16.3352 18.2253 17.553 19.4431 19.0557 19.4448H22.9446C24.4473 19.4431 25.6651 18.2253 25.6668 16.7226C25.6659 16.6668 25.6526 16.6118 25.6279 16.5616ZM8.94461 18.6671H5.05572C4.13201 18.666 3.33611 18.0163 3.15017 17.1115H10.8502C10.6643 18.0163 9.86832 18.666 8.94461 18.6671ZM10.6721 16.3337H3.32828L6.90061 8.54C6.96585 8.5575 7.03449 8.5575 7.09972 8.54L10.6721 16.3337ZM13.3496 3.42884C13.6524 3.0695 14.1892 3.02376 14.5485 3.32661C14.5854 3.35772 14.6197 3.39194 14.6508 3.42884C14.8081 3.62892 14.8636 3.89064 14.8013 4.13739L14.4742 5.44483H13.5261L13.1991 4.13739C13.1367 3.89064 13.1923 3.62892 13.3496 3.42884ZM13.6113 7.00039V6.22261H14.3891V7.00039H13.6113ZM14.3891 7.77817V21.7782H13.6113V7.77817H14.3891ZM17.8891 24.1115C18.3833 24.1121 18.8238 24.4235 18.9892 24.8893H9.01111C9.17653 24.4235 9.617 24.1121 10.1113 24.1115H17.8891ZM15.3947 23.3337H12.6056L13.3834 22.5559H14.6169L15.3947 23.3337ZM20.8998 8.54117C20.964 8.56377 21.0345 8.56085 21.0966 8.533L24.6721 16.3337H17.3283L20.8998 8.54117ZM22.9446 18.6671H19.0557C18.132 18.666 17.3361 18.0163 17.1502 17.1115H24.8502C24.6643 18.0163 23.8683 18.666 22.9446 18.6671Z" fill="#CDCDCD"/>
</svg>
